<?xml version="1.0" encoding="utf-8"?>
<!-- Generator: Adobe Illustrator 18.0.0, SVG Export Plug-In . SVG Version: 6.00 Build 0)  -->
<!DOCTYPE svg PUBLIC "-//W3C//DTD SVG 1.1//EN" "http://www.w3.org/Graphics/SVG/1.1/DTD/svg11.dtd">
<svg version="1.1" id="Layer_1" xmlns="http://www.w3.org/2000/svg" xmlns:xlink="http://www.w3.org/1999/xlink" x="0px" y="0px"
	 viewBox="0 0 159.7 48.3" enable-background="new 0 0 159.7 48.3" xml:space="preserve">
<g>
	<g>
		<path fill="#009FE3" d="M45.4,17.6V9.3h1.1c0.8,0,1.4,0.2,1.8,0.6c0.5,0.4,0.7,1,0.7,1.7c0,0.7-0.2,1.3-0.6,1.7
			c-0.4,0.4-1,0.6-1.7,0.6h-0.2v3.6H45.4z M46.5,12.9h0.2c0.9,0,1.3-0.5,1.3-1.4c0-0.9-0.5-1.3-1.5-1.2V12.9z"/>
		<path fill="#009FE3" d="M49.7,17.6l1.6-8.4h1.1l1.6,8.4h-1l-0.3-1.8h-1.5l-0.3,1.8H49.7z M51.3,14.7h1.2l-0.6-3.5h0L51.3,14.7z"/>
		<path fill="#009FE3" d="M55.4,17.6V9.3h0.9c0.7,0,1.3,0.2,1.6,0.6c0.4,0.4,0.6,1,0.6,1.7c0,0.8-0.3,1.4-0.9,1.8
			c0.4,0.3,0.8,1.2,1.1,2.5l0.4,1.7H58l-0.3-1.4c-0.2-1-0.4-1.6-0.6-1.9c-0.2-0.3-0.4-0.4-0.6-0.4v3.7H55.4z M56.5,12.9L56.5,12.9
			c0.6,0,0.9-0.4,0.9-1.3c0-0.9-0.3-1.3-0.9-1.3V12.9z"/>
		<path fill="#009FE3" d="M61.1,17.6v-7.3h-1.3v-1h3.6v1h-1.3v7.3H61.1z"/>
		<path fill="#009FE3" d="M64.9,17.6V9.3h0.9l1.8,5.1l0,0V9.3h1v8.3h-0.9l-1.8-5.2l0,0v5.2H64.9z"/>
		<path fill="#009FE3" d="M70.7,17.6V9.3h3v1h-1.9v2.5h1.7v1h-1.7v2.8h2v1H70.7z"/>
		<path fill="#009FE3" d="M75.9,17.6V9.3h0.9c0.7,0,1.3,0.2,1.6,0.6c0.4,0.4,0.6,1,0.6,1.7c0,0.8-0.3,1.4-0.9,1.8
			c0.4,0.3,0.8,1.2,1.1,2.5l0.4,1.7h-1.1l-0.3-1.4c-0.2-1-0.4-1.6-0.6-1.9c-0.2-0.3-0.4-0.4-0.6-0.4v3.7H75.9z M76.9,12.9L76.9,12.9
			c0.6,0,0.9-0.4,0.9-1.3c0-0.9-0.3-1.3-0.9-1.3V12.9z"/>
		<path fill="#009FE3" d="M80.7,17.4v-1.1c0.3,0.3,0.6,0.5,0.9,0.5c0.2,0,0.4-0.1,0.6-0.2c0.2-0.2,0.2-0.3,0.2-0.6
			c0-0.2,0-0.4-0.1-0.7c-0.1-0.3-0.3-0.8-0.7-1.5c-0.4-0.7-0.6-1.3-0.8-1.7c-0.1-0.4-0.2-0.7-0.2-1c0-0.6,0.2-1,0.5-1.4
			c0.3-0.4,0.7-0.5,1.2-0.5c0.3,0,0.6,0.1,0.9,0.2v1c-0.3-0.2-0.5-0.3-0.7-0.3c-0.5,0-0.8,0.3-0.8,0.8c0,0.2,0,0.4,0.1,0.7
			c0.1,0.3,0.3,0.8,0.7,1.5c0.4,0.7,0.6,1.3,0.8,1.7c0.1,0.4,0.2,0.7,0.2,1c0,0.6-0.2,1-0.5,1.4c-0.3,0.4-0.7,0.5-1.2,0.5
			C81.4,17.7,81,17.6,80.7,17.4z"/>
		<path fill="#009FE3" d="M85.2,17.6V9.3h1.1v3.7h1.6V9.3h1.1v8.3h-1.1v-3.7h-1.6v3.7H85.2z"/>
		<path fill="#009FE3" d="M90.9,17.6V9.3H92v8.3H90.9z"/>
		<path fill="#009FE3" d="M94.1,17.6V9.3h1.1c0.8,0,1.4,0.2,1.8,0.6c0.5,0.4,0.7,1,0.7,1.7c0,0.7-0.2,1.3-0.6,1.7
			c-0.4,0.4-1,0.6-1.7,0.6h-0.2v3.6H94.1z M95.2,12.9h0.2c0.9,0,1.3-0.5,1.3-1.4c0-0.9-0.5-1.3-1.5-1.2V12.9z"/>
		<path fill="#009FE3" d="M104.1,17.6V9.3h2.6v1h-1.5v2.5h1.4v1h-1.4v3.8H104.1z"/>
		<path fill="#009FE3" d="M110.7,17.7c-0.7,0-1.2-0.4-1.6-1.1c-0.4-0.8-0.6-1.8-0.6-3.1c0-1.3,0.2-2.3,0.6-3.1
			c0.4-0.8,0.9-1.2,1.6-1.2c0.7,0,1.2,0.4,1.6,1.2c0.4,0.8,0.6,1.8,0.6,3.1c0,1.3-0.2,2.4-0.6,3.1S111.3,17.7,110.7,17.7z
			 M110.7,10.1c-0.4,0-0.6,0.3-0.8,0.9c-0.2,0.6-0.3,1.4-0.3,2.4c0,1.1,0.1,1.9,0.3,2.4c0.2,0.6,0.5,0.8,0.8,0.8
			c0.3,0,0.6-0.3,0.8-0.9c0.2-0.6,0.3-1.4,0.3-2.4c0-1-0.1-1.9-0.3-2.4C111.3,10.4,111,10.1,110.7,10.1z"/>
		<path fill="#009FE3" d="M114.7,17.6V9.3h0.9c0.7,0,1.3,0.2,1.6,0.6c0.4,0.4,0.6,1,0.6,1.7c0,0.8-0.3,1.4-0.9,1.8
			c0.4,0.3,0.8,1.2,1.1,2.5l0.4,1.7h-1.1l-0.3-1.4c-0.2-1-0.4-1.6-0.6-1.9c-0.2-0.3-0.4-0.4-0.6-0.4v3.7H114.7z M115.8,12.9
			L115.8,12.9c0.6,0,0.9-0.4,0.9-1.3c0-0.9-0.3-1.3-0.9-1.3V12.9z"/>
	</g>
</g>
<path fill="#BCCF00" d="M0,30.5v17.8h11.1V38.3C6.3,37.7,2.1,34.7,0,30.5z"/>
<g>
	<path fill="#EA7624" d="M21,30.3c0-1.9,1.6-3.5,3.5-3.5c0.3,0,0.5,0,0.8,0.1c0.2-0.9,0.3-1.8,0.3-2.8c0-7-5.7-12.8-12.8-12.8
		C5.7,11.4,0,17.1,0,24.1c0,7,5.7,12.8,12.8,12.8c3.7,0,7-1.6,9.3-4C21.4,32.2,21,31.3,21,30.3z M12.8,27.6c-1.9,0-3.5-1.6-3.5-3.5
		c0-1.9,1.6-3.5,3.5-3.5c1.9,0,3.5,1.6,3.5,3.5C16.2,26,14.7,27.6,12.8,27.6z"/>
</g>
<g>
	<path fill="#009FE3" d="M12.8,0C12.8,0,12.8,0,12.8,0l0,9.9c0,0,0,0,0,0c7.9,0,14.3,6.4,14.3,14.3c0,1.2-0.2,2.4-0.4,3.5
		c0.8,0.6,1.3,1.6,1.3,2.7c0,1.9-1.6,3.5-3.5,3.5c-0.4,0-0.7-0.1-1-0.2c-2.6,2.9-6.4,4.8-10.6,4.8c0,0,0,0,0,0v9.9c0,0,0,0,0,0
		c13.3,0,24.1-10.8,24.1-24.1C36.9,10.8,26.1,0,12.8,0z"/>
</g>
<circle fill="#CA181A" cx="24.5" cy="30.4" r="2.3"/>
<g>
	<path fill="#BCCF00" d="M55.2,35.9c0,2.3-0.1,3.9-0.2,4.9c-0.1,1-0.4,1.8-1,2.6c-0.6,0.8-1.3,1.4-2.3,1.8S49.6,46,48.3,46
		c-1.2,0-2.3-0.2-3.3-0.6c-1-0.4-1.8-1-2.4-1.8c-0.6-0.8-1-1.7-1.1-2.6c-0.1-0.9-0.2-2.6-0.2-5V32c0-2.3,0.1-3.9,0.2-4.9
		s0.4-1.8,1-2.6c0.6-0.8,1.3-1.4,2.3-1.8c1-0.4,2.1-0.6,3.4-0.6c1.2,0,2.3,0.2,3.3,0.6c1,0.4,1.8,1,2.4,1.8c0.6,0.8,1,1.7,1.1,2.6
		c0.1,0.9,0.2,2.6,0.2,5V35.9z M49.2,28.4c0-1.1-0.1-1.8-0.2-2c-0.1-0.3-0.4-0.4-0.7-0.4c-0.3,0-0.6,0.1-0.7,0.4s-0.2,1-0.2,2.1
		v10.7c0,1.3,0.1,2.2,0.2,2.5c0.1,0.3,0.4,0.5,0.8,0.5c0.4,0,0.7-0.2,0.8-0.5c0.1-0.4,0.2-1.2,0.2-2.6V28.4z"/>
	<path fill="#BCCF00" d="M63.1,26.6L63,28.3c0.5-0.7,1.1-1.2,1.7-1.5c0.6-0.3,1.3-0.5,2-0.5c0.9,0,1.7,0.2,2.3,0.7
		c0.6,0.5,1.1,1,1.2,1.7c0.2,0.6,0.2,1.7,0.2,3.2v7.9c0,1.7-0.1,2.9-0.3,3.7c-0.2,0.7-0.6,1.3-1.2,1.7c-0.6,0.4-1.4,0.6-2.3,0.6
		c-0.7,0-1.4-0.2-2-0.5c-0.6-0.3-1.2-0.8-1.7-1.5v4.3h-5.7V26.6H63.1z M64.7,32.1c0-1.2,0-1.9-0.1-2.1c-0.1-0.2-0.3-0.4-0.7-0.4
		c-0.4,0-0.6,0.1-0.7,0.4c-0.1,0.3-0.2,1-0.2,2.1v7.8c0,1.1,0.1,1.8,0.2,2.1c0.1,0.3,0.4,0.4,0.7,0.4c0.4,0,0.6-0.1,0.7-0.4
		c0.1-0.3,0.1-0.9,0.1-1.9V32.1z"/>
	<path fill="#BCCF00" d="M85.3,36.4h-7.4v4.1c0,0.9,0.1,1.4,0.2,1.6c0.1,0.2,0.4,0.4,0.7,0.4c0.4,0,0.7-0.2,0.9-0.5
		c0.1-0.3,0.2-1,0.2-1.9v-2.5h5.4V39c0,1.2-0.1,2.1-0.2,2.7c-0.1,0.6-0.5,1.3-1,2c-0.5,0.7-1.2,1.2-2.1,1.6s-1.9,0.5-3.1,0.5
		c-1.2,0-2.3-0.2-3.2-0.5s-1.6-0.8-2.2-1.4c-0.5-0.6-0.9-1.3-1.1-2c-0.2-0.7-0.3-1.8-0.3-3.2v-5.5c0-1.6,0.2-2.9,0.7-3.9
		c0.4-1,1.2-1.7,2.2-2.2c1-0.5,2.2-0.8,3.5-0.8c1.6,0,2.9,0.3,4,0.9s1.8,1.4,2.2,2.4c0.4,1,0.6,2.4,0.6,4.2V36.4z M79.6,33.3v-1.4
		c0-1-0.1-1.6-0.2-1.9c-0.1-0.3-0.3-0.4-0.6-0.4c-0.4,0-0.6,0.1-0.7,0.4c-0.1,0.2-0.1,0.9-0.1,2v1.4H79.6z"/>
	<path fill="#BCCF00" d="M93,26.6l-0.1,1.7c0.4-0.7,0.9-1.2,1.5-1.6s1.3-0.5,2.1-0.5c1,0,1.8,0.2,2.4,0.7c0.6,0.5,1,1,1.2,1.8
		c0.2,0.7,0.3,1.9,0.3,3.5v13.2h-5.7v-13c0-1.3,0-2.1-0.1-2.4c-0.1-0.3-0.3-0.4-0.7-0.4c-0.4,0-0.7,0.2-0.8,0.5s-0.2,1.2-0.2,2.6
		v12.7h-5.7V26.6H93z"/>
	<path fill="#BCCF00" d="M107.7,22.5h4.5c2.9,0,4.8,0.1,5.9,0.4c1,0.3,1.8,0.7,2.3,1.3s0.9,1.3,1,2s0.2,2.2,0.2,4.4v8
		c0,2.1-0.1,3.4-0.3,4.1s-0.5,1.2-1,1.6s-1.1,0.7-1.8,0.8s-1.8,0.2-3.2,0.2h-7.5V22.5z M113.7,26.4v15.1c0.9,0,1.4-0.2,1.6-0.5
		c0.2-0.3,0.3-1.3,0.3-2.8v-8.9c0-1,0-1.7-0.1-2c-0.1-0.3-0.2-0.5-0.5-0.6C114.8,26.5,114.3,26.4,113.7,26.4z"/>
	<path fill="#BCCF00" d="M128.7,33.9h-5.4v-1.3c0-1.5,0.2-2.6,0.5-3.4c0.3-0.8,1-1.5,2-2.1c1-0.6,2.3-0.9,3.9-0.9
		c1.9,0,3.4,0.3,4.4,1c1,0.7,1.6,1.5,1.8,2.5c0.2,1,0.3,3.1,0.3,6.2v9.4h-5.6v-1.7c-0.4,0.7-0.8,1.2-1.4,1.5s-1.2,0.5-2,0.5
		c-1,0-1.9-0.3-2.8-0.8c-0.8-0.6-1.3-1.8-1.3-3.7v-1.5c0-1.4,0.2-2.4,0.7-2.9c0.4-0.5,1.5-1.1,3.3-1.8c1.9-0.7,2.9-1.2,3-1.5
		c0.1-0.3,0.2-0.8,0.2-1.6c0-1-0.1-1.6-0.2-1.9c-0.1-0.3-0.4-0.4-0.7-0.4c-0.4,0-0.6,0.1-0.7,0.4c-0.1,0.3-0.1,0.9-0.1,2V33.9z
		 M130.5,36.5c-0.9,0.7-1.4,1.2-1.6,1.7c-0.1,0.5-0.2,1.1-0.2,2c0,1,0.1,1.6,0.2,1.9c0.1,0.3,0.4,0.4,0.8,0.4c0.4,0,0.6-0.1,0.7-0.3
		c0.1-0.2,0.2-0.8,0.2-1.8V36.5z"/>
	<path fill="#BCCF00" d="M144.3,24.1v3h1.5v3h-1.5v10.1c0,1.2,0.1,1.9,0.2,2.1c0.1,0.1,0.7,0.2,1.6,0.2v3h-2.3
		c-1.3,0-2.2-0.1-2.8-0.2c-0.6-0.1-1-0.4-1.5-0.8s-0.7-0.8-0.8-1.3c-0.1-0.5-0.2-1.7-0.2-3.6v-9.6h-1.2v-3h1.2v-3H144.3z"/>
	<path fill="#BCCF00" d="M152.2,33.9h-5.4v-1.3c0-1.5,0.2-2.6,0.5-3.4c0.3-0.8,1-1.5,2-2.1c1-0.6,2.3-0.9,3.9-0.9
		c1.9,0,3.4,0.3,4.4,1c1,0.7,1.6,1.5,1.8,2.5c0.2,1,0.3,3.1,0.3,6.2v9.4h-5.6v-1.7c-0.4,0.7-0.8,1.2-1.4,1.5s-1.2,0.5-2,0.5
		c-1,0-1.9-0.3-2.8-0.8c-0.8-0.6-1.3-1.8-1.3-3.7v-1.5c0-1.4,0.2-2.4,0.7-2.9c0.4-0.5,1.5-1.1,3.3-1.8c1.9-0.7,2.9-1.2,3-1.5
		c0.1-0.3,0.2-0.8,0.2-1.6c0-1-0.1-1.6-0.2-1.9c-0.1-0.3-0.4-0.4-0.7-0.4c-0.4,0-0.6,0.1-0.7,0.4c-0.1,0.3-0.1,0.9-0.1,2V33.9z
		 M154,36.5c-0.9,0.7-1.4,1.2-1.6,1.7c-0.1,0.5-0.2,1.1-0.2,2c0,1,0.1,1.6,0.2,1.9c0.1,0.3,0.4,0.4,0.8,0.4c0.4,0,0.6-0.1,0.7-0.3
		c0.1-0.2,0.2-0.8,0.2-1.8V36.5z"/>
</g>
</svg>
